<?xml version="1.0" encoding="UTF-8" standalone="no"?>
<!-- Created with Inkscape (http://www.inkscape.org/) -->

<svg
   width="210mm"
   height="297mm"
   viewBox="0 0 210 297"
   version="1.1"
   id="svg5"
   xmlns:xlink="http://www.w3.org/1999/xlink"
   xmlns="http://www.w3.org/2000/svg"
   xmlns:svg="http://www.w3.org/2000/svg">
  <defs
     id="defs2">
    <linearGradient
       id="linearGradient2745">
      <stop
         style="stop-color:#000000;stop-opacity:1;"
         offset="0"
         id="stop2741" />
      <stop
         style="stop-color:#000000;stop-opacity:0;"
         offset="1"
         id="stop2743" />
    </linearGradient>
    <radialGradient
       xlink:href="#linearGradient2745"
       id="radialGradient2747"
       cx="-20.737248"
       cy="129.88805"
       fx="-20.737248"
       fy="129.88805"
       r="52.821373"
       gradientTransform="matrix(1,0,0,3.346928,0,-304.83791)"
       gradientUnits="userSpaceOnUse" />
  </defs>
  <g
     id="layer1">
    <path
       style="fill:#7945fc;stroke:url(#radialGradient2747);stroke-width:0.264583px;stroke-linecap:butt;stroke-linejoin:miter;stroke-opacity:1;fill-opacity:1"
       d="m 18.561005,-9.7761104 c -2.227594,2.9867829 -5.329299,5.215797 -7.67791,8.1083866 C 9.7087899,-0.22142902 8.7203773,1.4078413 8.2283144,3.2046819 7.7362515,5.0015225 7.771221,6.980802 8.5606373,8.6682806 9.1100206,9.8426579 9.998546,10.833194 11.001683,11.654595 c 1.003138,0.821401 2.123663,1.48562 3.243757,2.138592 1.120095,0.652972 2.248691,1.30078 3.274314,2.093927 1.025622,0.793148 1.952284,1.742723 2.566198,2.884692 0.887306,1.650519 1.066468,3.620527 0.751866,5.467836 -0.314602,1.847309 -1.095233,3.586916 -2.034782,5.208265 -1.879097,3.242699 -4.43845,6.144598 -5.624199,9.69989 -1.226814,3.678422 -0.855357,7.688084 -0.205969,11.51093 0.649388,3.822846 1.566495,7.649731 1.388551,11.523256 -0.206517,4.495512 -1.872287,8.773242 -3.283707,13.046435 -1.41142,4.273192 -2.5959087,8.804437 -1.8069275,13.234989 0.8171345,4.588645 3.6443075,8.522433 6.3067935,12.347943 1.331243,1.91276 2.644153,3.84839 3.688468,5.93172 1.044315,2.08333 1.818048,4.32912 2.008469,6.65174 0.196741,2.39971 -0.235379,4.82245 -1.020319,7.09867 -0.78494,2.27623 -1.916204,4.41796 -3.144004,6.48915 -2.455598,4.14238 -5.346488,8.11012 -6.80932,12.69809 -1.4791182,4.63904 -1.390238,9.72138 -0.01836,14.39326 1.371881,4.67188 3.993222,8.93574 7.339601,12.47273 3.40846,3.6026 7.563847,6.48576 10.649791,10.3682 1.542972,1.94121 2.808572,4.14042 3.421974,6.54309 0.613402,2.40267 0.540004,5.02294 -0.480294,7.28305 -1.06609,2.36154 -3.087352,4.18752 -5.333814,5.47858 -2.246462,1.29107 -4.73051,2.10152 -7.191268,2.91276 -2.460758,0.81124 -4.940316,1.64202 -7.16632,2.96805 -2.2260044,1.32602 -4.2078895,3.20371 -5.1996314,5.59743 -0.9361511,2.25954 -0.9250051,4.83198 -0.3371944,7.20609 0.5878106,2.3741 1.7211098,4.5778 2.9810598,6.67409 1.25995,2.09629 2.656352,4.11115 3.834572,6.25444 1.17822,2.1433 2.143046,4.44283 2.452971,6.86891 0.461782,3.61481 -0.553204,7.25218 -1.812656,10.67181 -1.259452,3.41963 -2.783615,6.77867 -3.405057,10.36948 -0.9047268,5.22768 0.161968,10.58058 1.40115,15.73922 1.239181,5.15864 2.66555,10.36498 2.482982,15.66723 -0.124689,3.62129 -1.022972,7.23911 -2.802516,10.39545 -1.7795436,3.15635 -4.4603041,5.83346 -7.7196229,7.41654 -2.96436071,1.43982 -6.3469394,1.94899 -9.6260244,1.62018 -3.2790849,-0.32881 -6.4532777,-1.47767 -9.2793087,-3.17298 -5.652062,-3.39061 -9.806552,-8.8457 -12.877865,-14.67743 -7.706735,-14.63335 -9.18921,-31.7482 -8.724352,-48.28037 0.464858,-16.53217 2.722051,-33.03823 1.880028,-49.55549 -1.159714,-22.74914 -8.153518,-44.76872 -15.784829,-66.23104 -7.631311,-21.46233 -15.999226,-42.820174 -20.093961,-65.227792 -4.094735,-22.407619 -3.645454,-46.316797 5.885746,-67.005549 4.765601,-10.344376 11.780478,-19.722905 20.753361,-26.737491 8.972884,-7.014587 19.932851,-11.598239 31.290127,-12.45225 5.1028239,-0.383707 10.2916624,-0.01727 15.2022112,1.422372 4.9105488,1.439637 9.5382548,3.978728 13.1531618,7.600674 3.614906,3.621946 6.177613,8.351839 6.903243,13.41736 0.725629,5.065521 -0.459428,10.440561 -3.518774,14.5425656 z"
       id="path2555" />
    <path
       style="fill:#7945fc;fill-opacity:1;stroke:none;stroke-width:0.264583px;stroke-linecap:butt;stroke-linejoin:miter;stroke-opacity:1"
       d="m 192.32689,283.18703 c 2.22759,-2.98678 5.3293,-5.2158 7.67791,-8.10839 1.1743,-1.44629 2.16271,-3.07556 2.65477,-4.8724 0.49207,-1.79684 0.4571,-3.77612 -0.33232,-5.4636 -0.54938,-1.17438 -1.43791,-2.16491 -2.44105,-2.98631 -1.00313,-0.8214 -2.12366,-1.48562 -3.24375,-2.13859 -1.12009,-0.65298 -2.24869,-1.30078 -3.27431,-2.09393 -1.02562,-0.79315 -1.95229,-1.74272 -2.5662,-2.88469 -0.88731,-1.65052 -1.06647,-3.62053 -0.75187,-5.46784 0.3146,-1.8473 1.09523,-3.58691 2.03478,-5.20826 1.8791,-3.2427 4.43845,-6.1446 5.6242,-9.69989 1.22681,-3.67842 0.85536,-7.68809 0.20597,-11.51093 -0.64939,-3.82285 -1.56649,-7.64973 -1.38855,-11.52326 0.20652,-4.49551 1.87229,-8.77324 3.28371,-13.04643 1.41142,-4.27319 2.59591,-8.80444 1.80693,-13.23499 -0.81713,-4.58865 -3.64431,-8.52244 -6.30679,-12.34795 -1.33125,-1.91275 -2.64416,-3.84839 -3.68847,-5.93172 -1.04432,-2.08332 -1.81805,-4.32912 -2.00847,-6.65174 -0.19674,-2.39971 0.23538,-4.82245 1.02032,-7.09867 0.78494,-2.27623 1.9162,-4.41796 3.144,-6.48915 2.4556,-4.14238 5.34649,-8.11012 6.80932,-12.69809 1.47912,-4.63904 1.39024,-9.72138 0.0184,-14.39326 -1.37188,-4.67188 -3.99322,-8.93574 -7.3396,-12.47272 -3.40846,-3.6026 -7.56385,-6.48576 -10.6498,-10.368195 -1.54297,-1.941217 -2.80857,-4.140423 -3.42197,-6.543094 -0.61341,-2.402671 -0.54001,-5.022945 0.48029,-7.283052 1.06609,-2.361544 3.08735,-4.187518 5.33381,-5.478582 2.24647,-1.291064 4.73052,-2.101523 7.19127,-2.912762 2.46076,-0.811239 4.94032,-1.642016 7.16633,-2.968041 2.226,-1.326025 4.20789,-3.203717 5.19963,-5.597435 0.93615,-2.259541 0.92501,-4.83198 0.33719,-7.206087 -0.58781,-2.374108 -1.72111,-4.577805 -2.98106,-6.674095 -1.25995,-2.09629 -2.65635,-4.11115 -3.83457,-6.254443 -1.17822,-2.143292 -2.14305,-4.442827 -2.45297,-6.868905 -0.46178,-3.614808 0.5532,-7.252178 1.81265,-10.671807 1.25946,-3.41963 2.78362,-6.778676 3.40506,-10.369483 0.90473,-5.227679 -0.16197,-10.5805795 -1.40115,-15.7392216 -1.23918,-5.1586422 -2.66555,-10.364981 -2.48298,-15.6672284 0.12469,-3.621293 1.02297,-7.239106 2.80252,-10.395454 1.77954,-3.156349 4.4603,-5.833453 7.71962,-7.416536 2.96436,-1.439819 6.34694,-1.948987 9.62602,-1.620178 3.27909,0.328809 6.45328,1.47767 9.27931,3.172976 5.65207,3.390611 9.80656,8.8457 12.87787,14.677432 7.70674,14.63335416 9.18921,31.748198 8.72435,48.28037 -0.46486,16.532173 -2.72205,33.038232 -1.88003,49.55549 1.15971,22.749141 8.15352,44.768721 15.78483,66.231041 7.63131,21.46232 15.99923,42.82017 20.09396,65.22779 4.09474,22.40761 3.64546,46.31679 -5.88574,67.00554 -4.7656,10.34438 -11.78048,19.72291 -20.75336,26.73749 -8.97289,7.01459 -19.93285,11.59824 -31.29013,12.45225 -5.10282,0.38371 -10.29166,0.0173 -15.20221,-1.42237 -4.91055,-1.43964 -9.53825,-3.97873 -13.15316,-7.60068 -3.6149,-3.62194 -6.17761,-8.35184 -6.90324,-13.41736 -0.72563,-5.06552 0.45943,-10.44055 3.51877,-14.54256 z"
       id="path2625" />
  </g>
</svg>
