<?xml version="1.0" encoding="UTF-8" standalone="no"?>
<!-- Created with Inkscape (http://www.inkscape.org/) -->

<svg
   width="210mm"
   height="297mm"
   viewBox="0 0 210 297"
   version="1.1"
   id="svg5"
   xmlns="http://www.w3.org/2000/svg"
   xmlns:svg="http://www.w3.org/2000/svg">
  <defs
     id="defs2">
    <filter
       style="color-interpolation-filters:sRGB;"
       id="filter5490"
       x="-0.020824902"
       y="-0.00339387"
       width="1.0321839"
       height="1.0082019">
      <feFlood
         flood-opacity="0.2"
         flood-color="rgb(34,60,80)"
         result="flood"
         id="feFlood5480" />
      <feComposite
         in="flood"
         in2="SourceGraphic"
         operator="in"
         result="composite1"
         id="feComposite5482" />
      <feGaussianBlur
         in="composite1"
         stdDeviation="0.5"
         result="blur"
         id="feGaussianBlur5484" />
      <feOffset
         dx="-1"
         dy="0.5"
         result="offset"
         id="feOffset5486" />
      <feComposite
         in="SourceGraphic"
         in2="offset"
         operator="over"
         result="composite2"
         id="feComposite5488" />
    </filter>
  </defs>
  <g
     id="layer1">
    <path
       style="fill:#7945fc;fill-opacity:1;stroke:none;stroke-width:0.264583px;stroke-linecap:butt;stroke-linejoin:miter;stroke-opacity:1;filter:url(#filter5490)"
       d="m 192.32689,283.18703 c 2.22759,-2.98678 5.3293,-5.2158 7.67791,-8.10839 1.1743,-1.44629 2.16271,-3.07556 2.65477,-4.8724 0.49207,-1.79684 0.4571,-3.77612 -0.33232,-5.4636 -0.54938,-1.17438 -1.43791,-2.16491 -2.44105,-2.98631 -1.00313,-0.8214 -2.12366,-1.48562 -3.24375,-2.13859 -1.12009,-0.65298 -2.24869,-1.30078 -3.27431,-2.09393 -1.02562,-0.79315 -1.95229,-1.74272 -2.5662,-2.88469 -0.88731,-1.65052 -1.06647,-3.62053 -0.75187,-5.46784 0.3146,-1.8473 1.09523,-3.58691 2.03478,-5.20826 1.8791,-3.2427 4.43845,-6.1446 5.6242,-9.69989 1.22681,-3.67842 0.85536,-7.68809 0.20597,-11.51093 -0.64939,-3.82285 -1.56649,-7.64973 -1.38855,-11.52326 0.20652,-4.49551 1.87229,-8.77324 3.28371,-13.04643 1.41142,-4.27319 2.59591,-8.80444 1.80693,-13.23499 -0.81713,-4.58865 -3.64431,-8.52244 -6.30679,-12.34795 -1.33125,-1.91275 -2.64416,-3.84839 -3.68847,-5.93172 -1.04432,-2.08332 -1.81805,-4.32912 -2.00847,-6.65174 -0.19674,-2.39971 0.23538,-4.82245 1.02032,-7.09867 0.78494,-2.27623 1.9162,-4.41796 3.144,-6.48915 2.4556,-4.14238 5.34649,-8.11012 6.80932,-12.69809 1.47912,-4.63904 1.39024,-9.72138 0.0184,-14.39326 -1.37188,-4.67188 -3.99322,-8.93574 -7.3396,-12.47272 -3.40846,-3.6026 -7.56385,-6.48576 -10.6498,-10.368195 -1.54297,-1.941217 -2.80857,-4.140423 -3.42197,-6.543094 -0.61341,-2.402671 -0.54001,-5.022945 0.48029,-7.283052 1.06609,-2.361544 3.08735,-4.187518 5.33381,-5.478582 2.24647,-1.291064 4.73052,-2.101523 7.19127,-2.912762 2.46076,-0.811239 4.94032,-1.642016 7.16633,-2.968041 2.226,-1.326025 4.20789,-3.203717 5.19963,-5.597435 0.93615,-2.259541 0.92501,-4.83198 0.33719,-7.206087 -0.58781,-2.374108 -1.72111,-4.577805 -2.98106,-6.674095 -1.25995,-2.09629 -2.65635,-4.11115 -3.83457,-6.254443 -1.17822,-2.143292 -2.14305,-4.442827 -2.45297,-6.868905 -0.46178,-3.614808 0.5532,-7.252178 1.81265,-10.671807 1.25946,-3.41963 2.78362,-6.778676 3.40506,-10.369483 0.90473,-5.227679 -0.16197,-10.5805795 -1.40115,-15.7392216 -1.23918,-5.1586422 -2.66555,-10.364981 -2.48298,-15.6672284 0.12469,-3.621293 1.02297,-7.239106 2.80252,-10.395454 1.77954,-3.156349 4.4603,-5.833453 7.71962,-7.416536 2.96436,-1.439819 6.34694,-1.948987 9.62602,-1.620178 3.27909,0.328809 6.45328,1.47767 9.27931,3.172976 5.65207,3.390611 9.80656,8.8457 12.87787,14.677432 7.70674,14.63335416 9.18921,31.748198 8.72435,48.28037 -0.46486,16.532173 -2.72205,33.038232 -1.88003,49.55549 1.15971,22.749141 8.15352,44.768721 15.78483,66.231041 7.63131,21.46232 15.99923,42.82017 20.09396,65.22779 4.09474,22.40761 3.64546,46.31679 -5.88574,67.00554 -4.7656,10.34438 -11.78048,19.72291 -20.75336,26.73749 -8.97289,7.01459 -19.93285,11.59824 -31.29013,12.45225 -5.10282,0.38371 -10.29166,0.0173 -15.20221,-1.42237 -4.91055,-1.43964 -9.53825,-3.97873 -13.15316,-7.60068 -3.6149,-3.62194 -6.17761,-8.35184 -6.90324,-13.41736 -0.72563,-5.06552 0.45943,-10.44055 3.51877,-14.54256 z"
       id="path2625" />
    <path
       style="fill:#7945fc;fill-opacity:1;stroke:none;stroke-width:0.264583px;stroke-linecap:butt;stroke-linejoin:miter;stroke-opacity:1;filter:url(#filter5490)"
       d="m -32.109523,282.80131 c 2.227593,-2.98678 5.329296,-5.2158 7.677905,-8.10839 1.174305,-1.44629 2.162717,-3.07556 2.654779,-4.8724 0.492062,-1.79684 0.457092,-3.77612 -0.332324,-5.4636 -0.549383,-1.17438 -1.437908,-2.16491 -2.441045,-2.98631 -1.003137,-0.8214 -2.123662,-1.48562 -3.243756,-2.13859 -1.120094,-0.65298 -2.248689,-1.30078 -3.274312,-2.09393 -1.025622,-0.79315 -1.952283,-1.74272 -2.566197,-2.88469 -0.887306,-1.65052 -1.066469,-3.62053 -0.751867,-5.46784 0.314601,-1.8473 1.095232,-3.58691 2.03478,-5.20826 1.879096,-3.2427 4.438449,-6.1446 5.624197,-9.69989 1.226814,-3.67842 0.855358,-7.68809 0.20597,-11.51093 -0.649389,-3.82285 -1.566494,-7.64973 -1.38855,-11.52326 0.206518,-4.49551 1.872288,-8.77324 3.283709,-13.04643 1.411421,-4.27319 2.595911,-8.80444 1.806931,-13.23499 -0.817133,-4.58865 -3.644306,-8.52244 -6.306793,-12.34795 -1.331243,-1.91275 -2.644153,-3.84839 -3.688468,-5.93172 -1.044315,-2.08332 -1.818048,-4.32912 -2.008469,-6.65174 -0.196741,-2.39971 0.235379,-4.82245 1.020319,-7.09867 0.784939,-2.27623 1.916204,-4.41796 3.144003,-6.48915 2.455598,-4.14238 5.346487,-8.11012 6.809318,-12.69809 1.479117,-4.63904 1.390237,-9.72138 0.01836,-14.39326 -1.371879,-4.67188 -3.993219,-8.93574 -7.339597,-12.47272 -3.408461,-3.6026 -7.56385,-6.48576 -10.649796,-10.368196 -1.542973,-1.941217 -2.808574,-4.140423 -3.421977,-6.543094 -0.613403,-2.402672 -0.540005,-5.022946 0.480293,-7.283053 1.066091,-2.361544 3.087352,-4.187518 5.333815,-5.478582 2.246463,-1.291064 4.730512,-2.101523 7.19127,-2.912762 2.460758,-0.811239 4.940317,-1.642016 7.166322,-2.968041 2.226005,-1.326025 4.207891,-3.203717 5.199633,-5.597435 0.936151,-2.259541 0.925005,-4.83198 0.337194,-7.206087 -0.58781,-2.374108 -1.72111,-4.577805 -2.98106,-6.674095 -1.25995,-2.09629 -2.656352,-4.11115 -3.834572,-6.254443 -1.178221,-2.143292 -2.143047,-4.442827 -2.452972,-6.868905 -0.461782,-3.614808 0.553203,-7.252178 1.812655,-10.671807 1.259451,-3.41963 2.783613,-6.778676 3.405055,-10.369483 0.904726,-5.227679 -0.161968,-10.5805795 -1.401149,-15.7392216 -1.239182,-5.1586422 -2.665549,-10.364981 -2.482981,-15.6672284 0.124689,-3.621293 1.022973,-7.239106 2.802517,-10.395454 1.779544,-3.156349 4.460304,-5.833453 7.719623,-7.416536 2.964361,-1.439819 6.34694,-1.948987 9.6260248,-1.620178 3.2790851,0.328809 6.45327766,1.47767 9.279309,3.172976 5.6520628,3.390611 9.8065532,8.8457 12.8778662,14.677432 7.706735,14.6333542 9.18921,31.748198 8.72435,48.28037 -0.464859,16.532173 -2.722052,33.038232 -1.88003,49.55549 1.159713,22.749133 8.153518,44.768723 15.784829,66.231043 7.631312,21.46232 15.999228,42.82017 20.093964,65.22779 4.094736,22.40761 3.645455,46.31679 -5.885745,67.00554 -4.7656,10.34438 -11.780477,19.72291 -20.753361,26.73749 -8.972883,7.01459 -19.932851,11.59824 -31.29012669,12.45225 -5.10282331,0.38371 -10.29166131,0.0173 -15.20220931,-1.42237 -4.910548,-1.43964 -9.538254,-3.97873 -13.153159,-7.60068 -3.614906,-3.62194 -6.177613,-8.35183 -6.903243,-13.41736 -0.725629,-5.06552 0.459426,-10.44055 3.518771,-14.54256 z"
       id="path5590"
       transform="rotate(180,-7.024594,141.64917)" />
  </g>
</svg>
