<?xml version="1.0" encoding="UTF-8" standalone="no"?>
<svg
   version="1.0"
   width="500.000000pt"
   height="500.000000pt"
   viewBox="0 0 500.000000 500.000000"
   preserveAspectRatio="xMidYMid meet"
   id="svg69"
   xmlns="http://www.w3.org/2000/svg"
   xmlns:svg="http://www.w3.org/2000/svg">
  <defs
     id="defs73" />
  <g
     transform="translate(0.000000,500.000000) scale(0.100000,-0.100000)"
     fill="#000000"
     stroke="none"
     id="g67">
    <path
       d="M2383 4199 c-157 -17 -366 -75 -478 -131 -82 -42 -202 -126 -259 -184 -166 -166 -241 -364 -241 -634 1 -211 36 -357 122 -502 124 -207 300 -338 703 -521 388 -176 489 -238 531 -320 44 -84 17 -207 -56 -263 -63 -48 -130 -67 -256 -72 -261 -10 -615 66 -904 195 -55 25 -115 51 -132 59 l-33 14 0 -394 0 -394 98 -40 c268 -111 457 -149 797 -159 365 -10 583 28 831 147 184 89 325 213 424 374 146 236 181 564 89 839 -51 154 -130 266 -262 373 -119 95 -231 159 -523 298 -401 190 -494 247 -533 329 -50 103 -7 206 109 259 36 17 72 22 178 26 204 7 397 -34 666 -143 77 -30 143 -52 147 -48 4 5 64 152 134 328 70 176 129 325 132 331 8 20 -264 122 -449 169 -201 52 -321 67 -543 70 -115 2 -247 -1 -292 -6z"
       id="path65" />
  </g>
  <g
     id="layer1">
    <rect
       style="fill:#ffffff;stroke-width:0.75"
       id="rect800"
       width="658.7478"
       height="655.52863"
       x="-83.248276"
       y="-83.248276" />
  </g>
  <path
     style="fill:#7945fc;stroke:none;stroke-width:0.837521;fill-opacity:1"
     d="m 280.56951,551.44802 c -30.44985,-2.46727 -50.10761,-7.16082 -81.03015,-19.34696 l -14.86599,-5.85848 v -51.85663 c 0,-28.52115 0.22623,-51.85664 0.50274,-51.85664 0.27651,0 6.77777,2.78185 14.44724,6.18188 17.90084,7.93581 31.35777,12.95512 45.98394,17.1516 39.69881,11.39021 81.94938,14.87196 102.69882,8.46311 11.53726,-3.5635 19.28085,-11.23339 21.95385,-21.74488 2.4484,-9.62831 0.49388,-18.82319 -5.56318,-26.17144 -5.64306,-6.84602 -26.99061,-18.82834 -61.5142,-34.52777 -64.26128,-29.22248 -88.38173,-48.28513 -104.70922,-82.75281 -7.11064,-15.01068 -10.44519,-32.58244 -10.44519,-55.0419 0,-32.97635 7.03646,-55.09755 24.34069,-76.52221 9.17141,-11.35528 26.95544,-25.28923 41.85051,-32.79027 12.2573,-6.17267 35.86623,-13.11061 55.76811,-16.38852 9.46194,-1.55841 14.11786,-1.77212 38.00247,-1.74429 30.63541,0.0357 43.81411,1.10353 63.57286,5.15111 25.484,5.2204 65.46708,18.3809 75.19541,24.7507 1.83176,1.19939 1.81712,1.24147 -14.78845,42.46248 -9.14212,22.69405 -17.14456,42.47257 -17.7832,43.95227 l -1.16114,2.69035 -9.17603,-3.24193 c -5.04682,-1.78305 -14.23272,-5.1739 -20.41311,-7.5352 -30.0679,-11.48785 -53.50296,-15.82542 -80.06631,-14.81935 -19.02552,0.72057 -25.80936,3.05906 -33.41539,11.5188 -6.58545,7.3246 -8.01996,16.69868 -3.98003,26.00825 4.6407,10.69395 12.82686,15.90959 67.55978,43.04426 56.86276,28.19058 66.69233,34.13863 82.95448,50.19722 12.92109,12.75936 19.6184,23.61042 25.51889,41.346 5.09477,15.31376 6.22765,23.0264 6.22888,42.40609 8.4e-4,14.04232 -0.30412,18.27072 -1.88656,26.15391 -8.43119,42.00119 -33.44665,73.35786 -73.91799,92.65557 -18.3134,8.73226 -34.79682,13.79039 -55.28266,16.96412 -10.2763,1.59203 -61.44324,2.32804 -76.57987,1.10156 z"
     id="path231"
     transform="scale(0.75)" />
</svg>
