<svg xmlns="http://www.w3.org/2000/svg" viewBox="0 0 512 512"><path fill="#103b9b" d="M8.258 200.946h495.484v110.108H8.258z"/><path d="M468.324 90.839H43.676c-19.562 0-35.418 15.857-35.418 35.417v74.69h495.484v-74.69c0-19.561-15.857-35.417-35.418-35.417z" fill="#fff"/><path d="M8.258 385.743c0 19.561 15.857 35.418 35.418 35.418h424.648c19.561 0 35.418-15.858 35.418-35.418v-74.689H8.258v74.689z" fill="#ed1f34"/><path d="M468.324 82.581H43.676C19.594 82.581 0 102.173 0 126.256v259.487c0 24.084 19.594 43.676 43.676 43.676h424.647c24.083 0 43.676-19.593 43.676-43.676V126.256c.001-24.083-19.593-43.675-43.675-43.675zM43.676 99.097h424.647c14.977 0 27.16 12.183 27.16 27.159v66.432H16.516v-66.432c0-14.976 12.184-27.159 27.16-27.159zm424.648 313.806H43.676c-14.977 0-27.16-12.183-27.16-27.16v-66.431h388.129a8.257 8.257 0 008.258-8.258 8.257 8.257 0 00-8.258-8.258H16.516v-93.591h478.968v93.591h-57.806a8.257 8.257 0 00-8.258 8.258 8.257 8.257 0 008.258 8.258h57.806v66.431c0 14.977-12.184 27.16-27.16 27.16z" fill="#121b21"/></svg>